<!DOCTYPE svg PUBLIC "-//W3C//DTD SVG 1.1//EN" "http://www.w3.org/Graphics/SVG/1.1/DTD/svg11.dtd">
<!-- Uploaded to: SVG Repo, www.svgrepo.com, Transformed by: SVG Repo Mixer Tools -->
<svg fill="#fff" height="256px" width="256px" version="1.1" id="Capa_1" xmlns="http://www.w3.org/2000/svg" xmlns:xlink="http://www.w3.org/1999/xlink" viewBox="-48.84 -48.84 586.08 586.08" xml:space="preserve" stroke="#fff" stroke-width="0.004884">
<g id="SVGRepo_bgCarrier" stroke-width="0"/>
<g id="SVGRepo_tracerCarrier" stroke-linecap="round" stroke-linejoin="round" stroke="#000000" stroke-width="97.67999999999999"> <g> <g> <path d="M0,203.25c0,112.1,91.2,203.2,203.2,203.2c51.6,0,98.8-19.4,134.7-51.2l129.5,129.5c2.4,2.4,5.5,3.6,8.7,3.6 s6.3-1.2,8.7-3.6c4.8-4.8,4.8-12.5,0-17.3l-129.6-129.5c31.8-35.9,51.2-83,51.2-134.7c0-112.1-91.2-203.2-203.2-203.2 S0,91.15,0,203.25z M381.9,203.25c0,98.5-80.2,178.7-178.7,178.7s-178.7-80.2-178.7-178.7s80.2-178.7,178.7-178.7 S381.9,104.65,381.9,203.25z"/> </g> </g> </g>
<g id="SVGRepo_iconCarrier"> <g> <g> <path d="M0,203.25c0,112.1,91.2,203.2,203.2,203.2c51.6,0,98.8-19.4,134.7-51.2l129.5,129.5c2.4,2.4,5.5,3.6,8.7,3.6 s6.3-1.2,8.7-3.6c4.8-4.8,4.8-12.5,0-17.3l-129.6-129.5c31.8-35.9,51.2-83,51.2-134.7c0-112.1-91.2-203.2-203.2-203.2 S0,91.15,0,203.25z M381.9,203.25c0,98.5-80.2,178.7-178.7,178.7s-178.7-80.2-178.7-178.7s80.2-178.7,178.7-178.7 S381.9,104.65,381.9,203.25z"/> </g> </g> </g>
</svg>