<!DOCTYPE svg PUBLIC "-//W3C//DTD SVG 1.1//EN" "http://www.w3.org/Graphics/SVG/1.1/DTD/svg11.dtd">
<!-- Uploaded to: SVG Repo, www.svgrepo.com, Transformed by: SVG Repo Mixer Tools -->
<svg fill="#fff" height="800px" width="800px" version="1.1" xmlns="http://www.w3.org/2000/svg" viewBox="-76.8 -76.8 665.60 665.60" xmlns:xlink="http://www.w3.org/1999/xlink" enable-background="new 0 0 512 512" stroke="#fff" stroke-width="12.8">
<g id="SVGRepo_bgCarrier" stroke-width="0" transform="translate(0,0), scale(1)">
<rect x="-76.8" y="-76.8" width="665.60" height="665.60" rx="0" fill="#831843" strokewidth="0"/>
</g>
<g id="SVGRepo_tracerCarrier" stroke-linecap="round" stroke-linejoin="round" stroke="#000" stroke-width="102.4"> <g> <path d="m494.8,241.4l-50.6-49.4c-50.1-48.9-116.9-75.8-188.2-75.8s-138.1,26.9-188.2,75.8l-50.6,49.4c-11.3,12.3-4.3,25.4 0,29.2l50.6,49.4c50.1,48.9 116.9,75.8 188.2,75.8s138.1-26.9 188.2-75.8l50.6-49.4c4-3.8 11.7-16.4 0-29.2zm-238.8,84.4c-38.5,0-69.8-31.3-69.8-69.8 0-38.5 31.3-69.8 69.8-69.8 38.5,0 69.8,31.3 69.8,69.8 0,38.5-31.3,69.8-69.8,69.8zm-195.3-69.8l35.7-34.8c27-26.4 59.8-45.2 95.7-55.4-28.2,20.1-46.6,53-46.6,90.1 0,37.1 18.4,70.1 46.6,90.1-35.9-10.2-68.7-29-95.7-55.3l-35.7-34.7zm355,34.8c-27,26.3-59.8,45.1-95.7,55.3 28.2-20.1 46.6-53 46.6-90.1 0-37.2-18.4-70.1-46.6-90.1 35.9,10.2 68.7,29 95.7,55.4l35.6,34.8-35.6,34.7z"/> </g> </g>
<g id="SVGRepo_iconCarrier"> <g> <path d="m494.8,241.4l-50.6-49.4c-50.1-48.9-116.9-75.8-188.2-75.8s-138.1,26.9-188.2,75.8l-50.6,49.4c-11.3,12.3-4.3,25.4 0,29.2l50.6,49.4c50.1,48.9 116.9,75.8 188.2,75.8s138.1-26.9 188.2-75.8l50.6-49.4c4-3.8 11.7-16.4 0-29.2zm-238.8,84.4c-38.5,0-69.8-31.3-69.8-69.8 0-38.5 31.3-69.8 69.8-69.8 38.5,0 69.8,31.3 69.8,69.8 0,38.5-31.3,69.8-69.8,69.8zm-195.3-69.8l35.7-34.8c27-26.4 59.8-45.2 95.7-55.4-28.2,20.1-46.6,53-46.6,90.1 0,37.1 18.4,70.1 46.6,90.1-35.9-10.2-68.7-29-95.7-55.3l-35.7-34.7zm355,34.8c-27,26.3-59.8,45.1-95.7,55.3 28.2-20.1 46.6-53 46.6-90.1 0-37.2-18.4-70.1-46.6-90.1 35.9,10.2 68.7,29 95.7,55.4l35.6,34.8-35.6,34.7z"/> </g> </g>
</svg>